<svg xmlns="http://www.w3.org/2000/svg" viewBox="0 0 1196.31 169.91"><defs><style>.cls-1{fill:#fff;}.cls-2{fill:#477dee;}</style></defs><title>Recurso 1</title><g id="Capa_2" data-name="Capa 2"><g id="Capa_1-2" data-name="Capa 1"><path class="cls-1" d="M1088.86,75.09c-.62-1.07-2.43-2.94-2.95-3.65-2-2.67-5.43-8.21-8.5-12.31-2-2.62-4.74-5-4.69-6.12.07-1.27,4.46-4.19,4.48-8s-2.72-7.69-4.53-11.37a28.57,28.57,0,0,1-2.67-8.57c0-1.35,0-3.61,2.45-3.14,3.73.71,5.47-4.34,6.51-8.94.52-2.31.21-8.7-3.35-11-2.74-1.74-7.66-2.67-12.32,1.78-2.85,2.72-2.92,8.32-3.89,12.9-.81,3.88-4.56,13.62-7.1,22.1-1.33,4.41-6,16.05-6.72,17.77-1.86,4.7-3,14.77-5.07,21.47a13.56,13.56,0,0,1-2,2.48c-1.73,1.36-3,5.58.15,6.42,6.29,1.67,5.69-6,5.85-6.42,1.56-4.65,4.13-9.73,5.74-15.26a53,53,0,0,1,1.66-5.32c.2-.34,2.05-4.22,2.79-5.24,0,0,.74,8.07-1.68,13.51-.31.71-2.36,5.91-2.67,9-.87,8.35,1.53,13.73,4.69,21.24,2.3,5.46,5.36,14.59,6.4,17.47l-4.5,2.75c-7.4,4.51-15.87,18.72-22.51,23.61-.83.61-2.67,1.09-3.64,2.41-2,2.67,1.56,5.07,2.08,5.87.91,1.4,5.85,8.64,6.74,9.57,2.73,2.83,3.55-2.19,2.27-4.45-2.1-3.75-2.35-8.6-.87-10s7.09-4.73,10.12-7.22c.94-.77,6.63-4.43,6.63-4.43a45.32,45.32,0,0,0-.46,13.63c.5,4.24.68,10,.7,10.94a15.14,15.14,0,0,1-1.38,6.14c-1.25,2.85.38,5.06,2.16,5.06h18.8c1.15-1.31.1-2.41-5.41-3.88-2.1-.56-5.8-2.08-6.37-6.19-.44-3.2.44-11,1.44-15.42.68-3,3.71-19,3.71-19s4.14-2.08,5.37-4,1.61-4.64,1.31-9.62c-.23-3.89-.34-14.94-3.31-27.3C1069.64,65,1070,62.57,1070,62.57a34.1,34.1,0,0,0,3.6,3.85c3.52,2.79,8,6.74,9.33,8.56a4.12,4.12,0,0,1,.46,2.92c-.07,2.28,1.73,4.93,3.59,4.06C1090.14,80.49,1089.8,76.7,1088.86,75.09Z"/><path class="cls-1" d="M1191.52,157.45c-1.48.09-11.07.68-12.35-.72-5.1-5.59-10.35-25.56-13.29-31.73-1.63-3.43-9.83-31.56-15.63-43.76l.1-7.66s2.43,1,3,1.32c2,1.3,8.94,5.49,11.83,8.82a39.31,39.31,0,0,1,2.69,4c1.27,2.09,4.84,2,7.29.47,1.19-.75,2.13-4.58-1-6.73-.92-.63-4.09-1.82-5.89-3.3-1.22-1-11.59-10.33-12.9-11.75-.86-.94-4.65-4.49-4.65-4.49-.2-2.54-1.45-17.68-3.08-24.22-.86-3.42-1.71-5.62-1.68-7.3,0-1.29-.28-7.31,2.63-6.78,4.71.86,7.37-8.75,6.78-14.47-.51-4.88-3.48-9.16-10.29-9.16-2.61,0-7.56,2.58-8.52,6.93-1.21,5.47,0,7.5,0,10.28,0,.78.09,2.35,0,3.13s-.78,5.51-1.86,6.76c-1.5,1.74-5.4,4-8.92,9.81-2.75,4.51-5.23,15.12-7.08,21.33-2.89,9.68-4.4,24.57-6.64,28.27a13.61,13.61,0,0,0-2.18,8.17c.48,5.5,6.56,4,7.78,1.67s1.15-6,1.31-7.79c.43-4.61,8-25.36,8-25.36s-.49,13.8-.68,16.08A98.17,98.17,0,0,0,1123.66,91c-.51,3.1-.56,5.84-1,10.88a186.48,186.48,0,0,1-3.28,22.17c-6.11,6.41-9.49,18.14-15.46,25.91-1,1.34-6.3,5-2.64,9.39a75.53,75.53,0,0,0,7,6.59c.56.5,3.67,3.52,5.88,3.82,1.51.2,4.3.18,4.56-1.44.14-.86-3-2.34-3.37-2.77a17.08,17.08,0,0,1-3.18-7.73,4,4,0,0,1,.62-2.27c1.12-2.28,13.47-19.26,17-25.43,3.68-6.42,8-21.32,10.62-27.64,2,6.29,12.56,24.62,17.35,33.55,2.16,6.72,5.67,12.78,12,24.22,1.11,2,1.34,6.68,3,7.51,1.06.53,2.55.25,5.34-1.14,8.08-4,18.23-4.61,18.23-6.55C1196.31,158.32,1192.93,157.36,1191.52,157.45Z"/><path class="cls-1" d="M926.62,104l0-.09S926.61,104,926.62,104Z"/><path class="cls-1" d="M1006.12,169.73c.11-.26.75-.75.28-1.56-1.7-2.91-14.63-3.84-15.51-7.83-.17-.77,2-14.6,2.33-17.22.53-3.71,2.49-19.05,3.71-25.44,2.91-15.2,1-32.1,1.48-32.36l4.91,7,10-6.85a6.17,6.17,0,0,0,6.91-2c.76-.88.64-3.13.71-3.42L1032.83,70l-17.09-23.38s-15,13.85-16.26,13.59c-.2-.05-.28-5.3-.21-9.55.06-3.88,0-10.07-1.31-13.11-1.09-2.61-2.25-5.9-1.86-7.13.07-.22.79-.54.73-1.56a15.41,15.41,0,0,0-.46-2.61c-.23-2.58,0-3.33,2.35-3,4.91.78,7.12-10.72,7.24-11.2s.11-5.6-2-7.84c-1-1.07-3.22-4.5-9.87-3.36A9.88,9.88,0,0,0,986,10.42c-.19,4,2,6.1,1.83,11.12a4.07,4.07,0,0,1-.19,1.27c-1.63,1.9-7.43,6.07-9.82,9.4-2.18,3-4.63,9.84-5.41,11.61s-2.44,4.83-3.13,6.49a75.66,75.66,0,0,0-3.07,9.32c-2.46,10.05-1,22.92-1.2,24.23a3,3,0,0,1-.67,1.11c-.24.27-.86.64-1.12.89-.43.41-1.71,1.39-1.55,2.69.27,2.34,1.79,5.64,5.13,4.7,1.71-.48,2.7-2.62,2.91-2.91s1.2-1.91,1.35-2.24a8.92,8.92,0,0,0,.46-2.24c0-.5-.05-3.51,0-4,.08-.86,2.35-15,3.66-17.55a86.32,86.32,0,0,0,3.5-9.07s.06,9.39,0,10.28c-.11,1.41-.78,4.18-.89,5.59,0,.44.07,1.35,0,1.79-.17,1-3.44,6.47-3.17,12.44.23,4.89,2.5,7.74,2.05,9.94-.38,1.86-4.15,17.14-4.47,17.88a10.75,10.75,0,0,1-1.13,1.57c-1.32,1.68-3.88,5.18-5.21,6.85-2.37,3-9.27,14-9.27,14s-3.3-11.53-4.71-15.53c-.84-2.39-10.56-27-11.26-29.3-.38-1.22-4.11-17.59-2.93-18.35.73-.46,10.64,6,12.56,8.07.38.4,2.8,3.19,3.13,3.78a3,3,0,0,0,3.13,1.57,27.87,27.87,0,0,0,3.14-.43c.93-.36,2.07-2.61,1.11-4.92a6.48,6.48,0,0,0-1.56-2c-.92-.72-10.47-6.49-11.19-6.94-1.56-1-9.6-10.2-9.63-10.51-.47-5.4,2.11-7.38,1.45-12.14-.71-5.13-4.14-9-5.23-10.66-4.84-7.17-3.75-14.32-2.51-14.32,4.05,0,6.54-1.46,8-7.59.6-2.48,1.62-6.58-.38-10.54-1.29-2.56-6.44-4.64-10.7-4.21-4.76.49-6.57,4.33-7.2,5.71-3.89,8.48-1.39,13.51-4.63,22-1.3,3.38-6.89,11.4-4.62,15.47l-.28,1.34a175.59,175.59,0,0,1-6.4-17.26c-.19-.62.62-1.42.65-2.24a12.47,12.47,0,0,0-.27-2.68c.09-.18.16-1.81,1.53-1.56,5,.92,6.58-3.83,7.26-6.71,1.18-5,.86-10.33-.88-11.87C910.21.32,905.35.22,903.81.65c-5.24,1.49-7.32,5.55-7.15,9.41.29,6.82,2.87,9,.89,11.86-.65.92-12.58,7.44-14.83,12.73a120.84,120.84,0,0,0-8.13,30.16c-.1.72-4.64-2.62-5.21-3.13-.8-.73-.17-9.32-1.63-17.86-.68-3.94-3.85-12.48-4.24-14-.32-1.16-.08-5.5,1.1-5.26,4.08.8,7.75-7.81,7.85-11.63.12-4.66-.71-8.47-2.48-9.84C866.74.59,862.3.17,860.8.65c-4.39,1.44-7,4.07-7.38,6.73-.66,4.85.78,8,.9,9.83a18.18,18.18,0,0,1,0,3.13c-.18.94-1,6.47-4.26,10.07-5.64,6.17-7.61,15.87-7.61,15.87a109.59,109.59,0,0,0-5.56-11.67,21.76,21.76,0,0,1-1.94-4.4c-.87-2.8-1.44-5.61-.39-5.52,6.48.58,9.76-12.25,9.46-14.7-.54-4.37-4.15-8.93-9-8.89-7.57,0-8.66,7-8.84,9.14-.22,2.64-.17,8.6-.26,10.1-.09,1.29-1,4.47-1.27,5.74-.34,1.54-3.34,3.56-5.23,10.37,0,0-2.69-3.25-2.9-4-.51-1.83.65-5.64,1.37-8.13a20.06,20.06,0,0,0,2.3.24c1.93,0,4.64-3.3,5-10.52.25-4.71-1.09-7.85-3.82-10.58C820,2.12,816.63.65,810.63.65H0V169.73H852.41c2.49,0,.85-3-.88-3.59a18.93,18.93,0,0,1-6.2-3.51c-1-.88-5.05-21.37-5.05-21.37l4.85-7.66,6.57,15.16a9.16,9.16,0,0,0-2.47,4.06c-.61,3.28,4.68,10.88,5.26,12,1.26,2.31,2.83,4.95,4.52,4.95H862c3.54,0,15.75-3.78,16.55-4.24,2.8-1.62,4-2.53,3.25-4.06-.58-1.15-3.93-1-4.2-1.1-1.52-.36-7.8-.16-10.09-1.79-1.5-1.07-2.15-2.67-3.17-5.67,0,0,10.08-12.46,12.19-12.12,1.58.25,10.44,19.68,10.54,20,.26.92-1.25,5-.45,8,.17.65,1.72.92,1.89.92h22.59c.37-.09,3.32-.87,1.5-2.69-.53-.54-4.6-1-5.07-1.21s-3-.63-2.92-1a57.15,57.15,0,0,0,6.65-2.45c.58-.36,1.93-1,2.25-1.57a2.5,2.5,0,0,0,.28-2.6c-.52-1-3.59-.65-4.1-.6-1,.08-8.46.8-8.51.3-.64-7.16,12.35-27.16,13.38-28.61,3.73-5.25,12.15-25.35,12.15-25.35a197.59,197.59,0,0,0,13.68,22.45c.68.94,8.28,16.06,8.23,17.39,0,.26-3,4.19-4.53,4.8-1.38.55-4.36,1.92-4.83,3.07a4.08,4.08,0,0,0,0,3.11c1.11,2.14,6.78,10,7.28,10.78.2.29,1.79,2.8,3.21,3.58,2.4,1.32,5.91.63,5.91.63a2.23,2.23,0,0,0-.41-2.17,19.26,19.26,0,0,1-2.55-3.35,14.94,14.94,0,0,1-1.58-6.73c.13-1.49,1.72-4.2,2.07-4.24,0,0,3.15,5.95,3.9,9.27a9.09,9.09,0,0,0,1.29,3.6c.95,1.45,3.2,1.17,4.18.66,1.86-1,9.37-4,11-4.53,1.36-.48,5.23-2.77,4.67-4.26-1-2.78-9.54-.56-14.43-2-2.15-.62-3.61-9.29-3.61-9.29.86-1.46,8.55-9.42,10-10.53a75.14,75.14,0,0,0,12.33-13.42c.09-.18.24-.73.43-.67s0,.5,0,.67c0,.79-1.13,15.18-1.19,24.13,0,3.35,1.25,10.9.14,15.51-.12.5-.73,2.28-1,3.42a4.07,4.07,0,0,0,1.39,3.9ZM810.61,157.1c-.22-.47,3-17,3-17s4.76,12,5,13.11c0,0-1.19,2.86-1.74,4.37-.69,1.89,3,5.91,3,5.91S813,162.29,810.61,157.1Zm14.69-13s-3.75-14.8-3.7-15.3l1.8-2.25L829,139Zm6.33,18.16c-1.37-1-2.48-6-2.48-6l3.23-5.8,3.21,11.18S832.55,163,831.63,162.27Zm28-21.44s-6-13.93-6.13-16.78c0-.92,4.2-8.32,6.2-8.06.89.11,8.94,12.5,8.86,14.18S859.63,140.83,859.63,140.83Zm23-33.29c-1.14,3.92-2.76,8.52-3.73,8.51,0,0-2.75-5.61-5.59-13.36-1.54-4.22-4.16-9.8-4.09-13.54.13-6.19-.88-14.3-.17-14.74.53-.33,4.38,1.85,4.79,2.51,0,0,.91,10.56.78,11.13a7.39,7.39,0,0,0-1.53,3.87c-.1,2.52,1.6,6.1,5.13,6,4.12-.1,4.79-4,4.85-3.77C883.11,94.16,883.94,103.18,882.67,107.54Zm6.71,33.69-3.29-8.42c.21-1,4-4.18,4.24-4.13ZM910.62,91c-2.29,6.57-5.24,28.38-5.24,28.38,1.69-10.88-.57-25.85-.45-29.09.22-6.4,2-27.07,3.63-29.94.1-.18,7.48,12.55,7.54,13.28C916.3,77.9,913.21,83.58,910.62,91Z"/><path class="cls-2" d="M183.32,26.44c1.18-2,4-10.38,6.76-10.38,2.32,0,10.26,24.53,20,50.79,10.76,28.84,21.72,59.1,21.72,59.1,2.54,7.88,5.64,16.4,8.84,18.85,6.25,4.77,10.47,1.55,10.43,6.46,0,2.76-4.24,2.9-6.21,2.9H192.25c-3.55,0-3.37-1.44-3.38-2.6-.06-4.73,12.52-1.11,14.67-14.89.39-2.54-3.71-26.24-10.5-27.21-4.56-.65-10.78-.81-24.59-.81-10.46,0-17.51-.19-20.27.21-6.51,1-14.64,15.74-15.61,26.61-1.31,14.6,20.28,8.29,20.29,15.79,0,.8-.37,2.9-2.15,2.9H107.47c-3.35,0-4.13-.93-4.13-2.51,0-4.73,10-4.34,15-13.61ZM159.67,82.79c-1.77,3.56-6.78,11-6.78,13.42,0,3.55,11.22,2.42,16,2.42,13.22,0,22.14.42,23.11-1.52.88-1.77-4.49-12.74-6.26-17.67l-6-15.55c-1.38-3.75-3.1-6.31-4.28-6.31-2.61,0-2.7,2.05-4.52,5.33Z"/><path class="cls-2" d="M289.21,130.27c-.5,19,18,13,17.68,20.43-.1,2.63-4.06,3.28-5,3.28H249.52c-4.07,0-2.87-.2-3.22-2.84-.71-5.23,2.25-1.4,7.89-6.38,2.27-2,5.5-5.56,6.16-10.57,2-15.26,7.26-83.54,7.26-83.54.37-3.24,2.37-15.81-.58-20-6.83-9.67-16.5-1.95-15.67-9.76.26-2.47,5.86-3.6,9.19-3.6,4.44,0,10.92.19,26.28.19,6.11,0,15-.38,20.14-.38,2.59,0,7.22.28,7.22,2.38,0,6.29-14.74,2.58-16.29,16.66C295.31,59.82,289.33,125.88,289.21,130.27Z"/><path class="cls-2" d="M391.12,76.08c18.93-3.44,14.72-17.82,20.56-17.81,2.31,0,2.74,1.84,2.15,5.4-1.21,7.24-2.66,18.2-3.37,37-.07,2-1.45,4.13-3.5,4-4.8-.37.2-19.93-20.9-19.48,0,0-8.37-.63-14.91,2.17-3.58,1.81-3.09,13.16-3.78,24.1-.52,8.18-1.48,16.6-1.54,18.34-.43,12.5,1.77,14,13.71,13.87,42.24-.63,46.67-26.22,50.92-25.91,0,0,3.78-1,2.57,5.39-3.56,18.56-13,28.82-24.61,30.91H324.34c-2.7,0-4.61-.47-4.61-1.63,0-9.29,14.24-1.35,16.74-20.94l7.47-73.55c.53-10.39.08-19.1.08-22.21,0-14.35-16.52-8.19-16.69-14.75-.09-3.3,4.6-3.84,5.18-3.84,12.33,0,24.46.21,36.79.21,43.54,0,54.23,0,58.47,0,2.31,0,4.88.3,4.84,2.24-.13,7.24-1.85,14.73-1.9,19.23-.07,7.55.48,11.07-2.94,11.82-5.46,1.19-1.95-11.44-7.18-16.78-5-6.28-22.11-6.51-30.44-6.48-5.11,0-10.47-1.32-14,2.06C374.21,31.21,373.9,39,373,49c-.58,6.42-1.15,14.85-2,21.2-.69,5.25.12,6.54,5.48,6.54Z"/><path class="cls-2" d="M608.2,76.08c18.93-3.44,14.72-17.82,20.55-17.81,2.32,0,2.75,1.84,2.15,5.4-1.2,7.24-2.65,18.2-3.36,37-.07,2-1.45,4.13-3.51,4-4.79-.37.21-19.93-20.89-19.48,0,0-8.38-.63-14.91,2.17-3.58,1.81-3.09,13.16-3.78,24.1-.52,8.18-1.48,16.6-1.54,18.34-.43,12.5,1.77,14,13.71,13.87,42.24-.63,46.67-26.22,50.92-25.91,0,0,3.78-1,2.56,5.39-3.55,18.56-13,28.82-24.61,30.91H541.42c-2.7,0-4.61-.47-4.61-1.63,0-9.29,14.24-1.35,16.74-20.94L561,57.88c.53-10.39.08-19.1.08-22.21,0-14.35-16.52-8.19-16.69-14.75-.09-3.3,4.6-3.84,5.18-3.84,12.32,0,24.46.21,36.79.21,43.54,0,54.23,0,58.46,0,2.32,0,4.88.3,4.85,2.24-.13,7.24-1.85,14.73-1.9,19.23-.07,7.55.48,11.07-2.94,11.82-5.46,1.19-2-11.44-7.18-16.78-5-6.28-22.11-6.51-30.45-6.48-5.1,0-10.46-1.32-14,2.06-2,1.87-2.26,9.68-3.16,19.62-.58,6.42-1.15,14.85-2,21.2-.69,5.25.12,6.54,5.48,6.54Z"/><path class="cls-2" d="M536.55,54.91c0,1.8-2,3.72-4,3.8-4.46.16-2.76-8.49-10.53-19.26-5.63-7.79-17.12-15.17-26.86-15.23-12.21-.06-24.34,4.26-25.52,18.23s7.21,19.11,38.82,29.64c13.06,4.36,26.92,15.53,27.34,30.67,1,37-29,55.3-51,52.87-6.43-.72-15.36-2.89-22.8-4.66s-13.41-3.17-13.91-5.37c0,0-3.78-24.37-4.78-30.26-.7-4.15,1.24-5.22,3.44-5.18,3.81,0,5.07,11.27,12.61,21.46,6,8.09,16.48,16.13,28.8,16.13,12.81,0,27.19-6.81,28.6-22.92.9-10.27-4.88-15.92-12.6-19.7-11.87-5.82-26.37-7-42.71-20-11.25-9.23-11-19.52-11.24-31.12-.36-20,22.51-38.85,43.13-38.85,14,0,27,8,33,8,1.6,0,6-4,7.64-4,3.4,0,2.7,3.9,2.7,6.7C536.75,25.93,536.55,48.7,536.55,54.91Z"/><path class="cls-2" d="M788.31,53.78c.13,5.26.9,8-2.53,8.24-3.77.26-7.16-20.3-25.54-31.68-6.12-3.8-13.93-5.79-23.93-6.68-9.74-.87-46.57,4.61-48.16,62.33-.76,27.58,13.71,54.68,41.87,55,30.26.37,47-25.05,51.9-25.05,1.71,0,2.46-.17,2.46,1.78,0,8.38-31.39,37.67-62.68,37.67-34.44,0-67.44-22.57-63.92-63.85,1.17-13.82,5.39-32.82,16-47,14.22-19,38-28.17,57.85-28.17,27.36,0,39.68,10,44.57,10.73s6.59-11.31,10.94-7.51C788.39,20.66,788.18,48.84,788.31,53.78Z"/><path class="cls-2" d="M800.23,149.29a9.15,9.15,0,0,0-2.33-4,9.4,9.4,0,0,0-1.83-1.43,9,9,0,0,0-2.16-.93,9.2,9.2,0,0,0-4.81,0,9.14,9.14,0,0,0-2.15.93,9.4,9.4,0,0,0-1.83,1.43,9.49,9.49,0,0,0-1.41,1.86,9.23,9.23,0,0,0-.92,2.19,9.14,9.14,0,0,0,.92,7.05,9.73,9.73,0,0,0,1.41,1.85,9.4,9.4,0,0,0,1.83,1.43,9.14,9.14,0,0,0,2.15.93,9.2,9.2,0,0,0,4.81,0,9,9,0,0,0,2.16-.93,9.4,9.4,0,0,0,1.83-1.43,9.78,9.78,0,0,0,1.42-1.85,9.63,9.63,0,0,0,.91-2.19,9.39,9.39,0,0,0,0-4.86Zm-1.16,4.58a8.34,8.34,0,0,1-.79,1.92,7.8,7.8,0,0,1-1.22,1.63,7.59,7.59,0,0,1-1.58,1.24,7.3,7.3,0,0,1-1.88.8,7.71,7.71,0,0,1-4.19,0,7,7,0,0,1-1.86-.8,7.8,7.8,0,0,1-1.57-1.24,7.42,7.42,0,0,1-1.21-1.63,7.89,7.89,0,0,1-.78-1.92,8.37,8.37,0,0,1-.27-2.14,8.58,8.58,0,0,1,.27-2.16,7.81,7.81,0,0,1,.78-1.93A7.48,7.48,0,0,1,786,146a7.9,7.9,0,0,1,1.57-1.26,8.18,8.18,0,0,1,1.86-.81,7.72,7.72,0,0,1,7.65,2.08,7.87,7.87,0,0,1,1.67,2.57,8.08,8.08,0,0,1,.62,3.15A8.37,8.37,0,0,1,799.07,153.87Z"/><path class="cls-2" d="M794.67,154.76a4.61,4.61,0,0,0-.58.33,3.62,3.62,0,0,1-.59.31,4.23,4.23,0,0,1-.76.25,4.72,4.72,0,0,1-1.08.1,3.62,3.62,0,0,1-1.41-.27,3.06,3.06,0,0,1-1.12-.78,3.7,3.7,0,0,1-.74-1.27,5.15,5.15,0,0,1-.27-1.73,5.26,5.26,0,0,1,.26-1.69,3.63,3.63,0,0,1,.76-1.28,3.4,3.4,0,0,1,1.19-.81,4.27,4.27,0,0,1,1.57-.28,4,4,0,0,1,1.19.15,4.07,4.07,0,0,1,.79.31,5.76,5.76,0,0,1,.5.31.64.64,0,0,0,.36.13.4.4,0,0,0,.24-.07.78.78,0,0,0,.16-.15l.57-.82a5.68,5.68,0,0,0-1.64-1.12,5.53,5.53,0,0,0-2.28-.42,5.93,5.93,0,0,0-2.25.42,5.47,5.47,0,0,0-1.79,1.18,5.38,5.38,0,0,0-1.17,1.82,6.22,6.22,0,0,0-.42,2.32,6.59,6.59,0,0,0,.39,2.31,5.18,5.18,0,0,0,1.1,1.81,4.83,4.83,0,0,0,1.71,1.19,5.43,5.43,0,0,0,2.2.43A5.9,5.9,0,0,0,794,157a4.8,4.8,0,0,0,1.73-1.28l-.75-.8A.41.41,0,0,0,794.67,154.76Z"/></g></g></svg>